<svg version="1.1" xmlns="http://www.w3.org/2000/svg" viewBox="0 0 920 700" width="2760" height="2100">
  <rect x="0" y="0" width="920" height="700" fill="transparent"></rect><g stroke-linecap="round" transform="translate(10 110) rotate(0 450 290)"><path d="M0 0 L900 0 L900 580 L0 580" stroke="none" stroke-width="0" fill="#f1f3f4"></path><path d="M0 0 C319.82 0, 639.65 0, 900 0 M0 0 C326.32 0, 652.64 0, 900 0 M900 0 C900 177.62, 900 355.24, 900 580 M900 0 C900 176.51, 900 353.02, 900 580 M900 580 C673.17 580, 446.33 580, 0 580 M900 580 C701.03 580, 502.06 580, 0 580 M0 580 C0 402.84, 0 225.69, 0 0 M0 580 C0 378.7, 0 177.41, 0 0" stroke="#b5b9bf" stroke-width="2" fill="none"></path></g><g stroke-linecap="round" transform="translate(50 190) rotate(0 414.47368421052624 217.63157894736833)"><path d="M0 0 L828.95 0 L828.95 435.26 L0 435.26" stroke="none" stroke-width="0" fill="#c4e1ff"></path><path d="M0 0 C280.75 0, 561.49 0, 828.95 0 M0 0 C263.6 0, 527.19 0, 828.95 0 M828.95 0 C828.95 136.31, 828.95 272.61, 828.95 435.26 M828.95 0 C828.95 172.62, 828.95 345.24, 828.95 435.26 M828.95 435.26 C503.01 435.26, 177.08 435.26, 0 435.26 M828.95 435.26 C504.07 435.26, 179.2 435.26, 0 435.26 M0 435.26 C0 293.11, 0 150.95, 0 0 M0 435.26 C0 271.76, 0 108.25, 0 0" stroke="#ccdffc" stroke-width="2" fill="none"></path></g><g stroke-linecap="round" transform="translate(530 230) rotate(0 142.10526315789457 180)"><path d="M0 0 L284.21 0 L284.21 360 L0 360" stroke="none" stroke-width="0" fill="#fdde88"></path><path d="M0 0 C101.17 0, 202.33 0, 284.21 0 M0 0 C82.69 0, 165.39 0, 284.21 0 M284.21 0 C284.21 132.21, 284.21 264.43, 284.21 360 M284.21 0 C284.21 86.77, 284.21 173.55, 284.21 360 M284.21 360 C188.37 360, 92.52 360, 0 360 M284.21 360 C222.85 360, 161.49 360, 0 360 M0 360 C0 220.25, 0 80.49, 0 0 M0 360 C0 241.5, 0 123, 0 0" stroke="#fdde88" stroke-width="2" fill="none"></path></g><g stroke-linecap="round"><g transform="translate(330 369.9999999999566) rotate(0 99.5 1.1567635738174431e-11)"><path d="M0 0 C33.17 0, 165.83 0, 199 0 M0 0 C33.17 0, 165.83 0, 199 0" stroke="#364fc7" stroke-width="2" fill="none"></path></g><g transform="translate(330 369.9999999999566) rotate(0 99.5 1.1567635738174431e-11)"><path d="M199 0 L185.41 6.34 L185.41 -6.34 L199 0" stroke="none" stroke-width="0" fill="#364fc7" fill-rule="evenodd"></path><path d="M199 0 C195.33 1.71, 191.67 3.42, 185.41 6.34 M199 0 C195.27 1.74, 191.53 3.48, 185.41 6.34 M185.41 6.34 C185.41 2.92, 185.41 -0.49, 185.41 -6.34 M185.41 6.34 C185.41 1.76, 185.41 -2.82, 185.41 -6.34 M185.41 -6.34 C188.69 -4.81, 191.97 -3.28, 199 0 M185.41 -6.34 C190.45 -3.99, 195.5 -1.63, 199 0 M199 0 C199 0, 199 0, 199 0 M199 0 C199 0, 199 0, 199 0" stroke="#364fc7" stroke-width="2" fill="none"></path></g></g><g transform="translate(570 251.75) rotate(0 91 9.5)"><text x="0" y="15" font-family="Helvetica, Segoe UI Emoji" font-size="16px" fill="black" text-anchor="start" style="white-space: pre;" direction="ltr">Managed Instance Group</text></g><g stroke-linecap="round" transform="translate(570 290) rotate(0 104.80263157894728 46.18421052631578)"><path d="M23.09 0 L186.51 0 L196.62 1.44 L200.58 3.25 L203.83 5.77 L206.36 9.02 L209.24 17.68 L209.61 69.28 L208.16 79.38 L206.36 83.35 L203.83 86.6 L200.58 89.12 L196.62 90.93 L186.51 92.37 L23.09 92.37 L12.99 90.93 L5.77 86.6 L3.25 83.35 L0.36 74.69 L0.36 17.68 L1.44 12.99 L5.77 5.77 L12.99 1.44 L23.09 0" stroke="none" stroke-width="0" fill="#FFF"></path><path d="M23.09 0 M23.09 0 C64.43 0, 105.77 0, 186.51 0 M23.09 0 C69.6 0, 116.11 0, 186.51 0 M186.51 0 C201.91 0, 209.61 7.7, 209.61 23.09 M186.51 0 C201.91 0, 209.61 7.7, 209.61 23.09 M209.61 23.09 C209.61 33.48, 209.61 43.86, 209.61 69.28 M209.61 23.09 C209.61 39.77, 209.61 56.44, 209.61 69.28 M209.61 69.28 C209.61 84.67, 201.91 92.37, 186.51 92.37 M209.61 69.28 C209.61 84.67, 201.91 92.37, 186.51 92.37 M186.51 92.37 C142.78 92.37, 99.05 92.37, 23.09 92.37 M186.51 92.37 C138.02 92.37, 89.53 92.37, 23.09 92.37 M23.09 92.37 C7.7 92.37, 0 84.67, 0 69.28 M23.09 92.37 C7.7 92.37, 0 84.67, 0 69.28 M0 69.28 C0 56.09, 0 42.91, 0 23.09 M0 69.28 C0 57.9, 0 46.53, 0 23.09 M0 23.09 C0 7.7, 7.7 0, 23.09 0 M0 23.09 C0 7.7, 7.7 0, 23.09 0" stroke="#4285f4" stroke-width="2" fill="none"></path></g><g transform="translate(641.0526315789466 325.21052631579005) rotate(0 60 9.5)"><text x="0" y="15" font-family="Helvetica, Segoe UI Emoji" font-size="16px" fill="#000000" text-anchor="start" style="white-space: pre;" direction="ltr">Compute Engine</text></g><g stroke-linecap="round"><g transform="translate(606.6743983720476 317.2870204480075) rotate(0 1.88269276367987 3.7653879978154805)" fill-rule="evenodd"><path d="M0 0 L3.77 0 L3.77 7.53 L0 7.53 L0 0" stroke="none" stroke-width="0" fill="#669df6" fill-rule="evenodd"></path><path d="M0 0 C1.44 0, 2.88 0, 3.77 0 M0 0 C0.93 0, 1.87 0, 3.77 0 M3.77 0 C3.77 1.7, 3.77 3.39, 3.77 7.53 M3.77 0 C3.77 2.33, 3.77 4.66, 3.77 7.53 M3.77 7.53 C2.81 7.53, 1.86 7.53, 0 7.53 M3.77 7.53 C2.31 7.53, 0.86 7.53, 0 7.53 M0 7.53 C0 5.84, 0 4.14, 0 0 M0 7.53 C0 5.15, 0 2.78, 0 0 M0 0 C0 0, 0 0, 0 0 M0 0 C0 0, 0 0, 0 0" stroke="#00000000" stroke-width="1" fill="none"></path></g></g><g stroke-linecap="round"><g transform="translate(599.1436216705697 317.2870204480075) rotate(0 1.8826944577066342 3.7653879978154805)" fill-rule="evenodd"><path d="M0 0 L3.77 0 L3.77 7.53 L0 7.53 L0 0" stroke="none" stroke-width="0" fill="#669df6" fill-rule="evenodd"></path><path d="M0 0 C0.86 0, 1.73 0, 3.77 0 M0 0 C1.28 0, 2.57 0, 3.77 0 M3.77 0 C3.77 2.41, 3.77 4.81, 3.77 7.53 M3.77 0 C3.77 2.34, 3.77 4.68, 3.77 7.53 M3.77 7.53 C2.92 7.53, 2.08 7.53, 0 7.53 M3.77 7.53 C2.57 7.53, 1.37 7.53, 0 7.53 M0 7.53 C0 5.62, 0 3.7, 0 0 M0 7.53 C0 4.63, 0 1.73, 0 0 M0 0 C0 0, 0 0, 0 0 M0 0 C0 0, 0 0, 0 0" stroke="#00000000" stroke-width="1" fill="none"></path></g></g><g stroke-linecap="round"><g transform="translate(614.2051739441704 317.2870204480075) rotate(0 1.8826938930310462 3.7653879978154805)" fill-rule="evenodd"><path d="M0 0 L3.77 0 L3.77 7.53 L0 7.53 L0 0" stroke="none" stroke-width="0" fill="#669df6" fill-rule="evenodd"></path><path d="M0 0 C1.15 0, 2.3 0, 3.77 0 M0 0 C1.41 0, 2.82 0, 3.77 0 M3.77 0 C3.77 2.76, 3.77 5.53, 3.77 7.53 M3.77 0 C3.77 1.66, 3.77 3.32, 3.77 7.53 M3.77 7.53 C2.46 7.53, 1.15 7.53, 0 7.53 M3.77 7.53 C2.41 7.53, 1.05 7.53, 0 7.53 M0 7.53 C0 4.73, 0 1.92, 0 0 M0 7.53 C0 5.89, 0 4.25, 0 0 M0 0 C0 0, 0 0, 0 0 M0 0 C0 0, 0 0, 0 0" stroke="#00000000" stroke-width="1" fill="none"></path></g></g><g stroke-linecap="round"><g transform="translate(606.6743983720476 347.41012372468685) rotate(0 1.88269276367987 3.765387786062149)" fill-rule="evenodd"><path d="M0 0 L3.77 0 L3.77 7.53 L0 7.53 L0 0" stroke="none" stroke-width="0" fill="#4285f4" fill-rule="evenodd"></path><path d="M0 0 C1.37 0, 2.75 0, 3.77 0 M0 0 C0.98 0, 1.97 0, 3.77 0 M3.77 0 C3.77 2.4, 3.77 4.8, 3.77 7.53 M3.77 0 C3.77 2.76, 3.77 5.52, 3.77 7.53 M3.77 7.53 C2.55 7.53, 1.34 7.53, 0 7.53 M3.77 7.53 C2.43 7.53, 1.09 7.53, 0 7.53 M0 7.53 C0 4.95, 0 2.36, 0 0 M0 7.53 C0 5.87, 0 4.2, 0 0 M0 0 C0 0, 0 0, 0 0 M0 0 C0 0, 0 0, 0 0" stroke="#00000000" stroke-width="1" fill="none"></path></g></g><g stroke-linecap="round"><g transform="translate(599.1436216705697 347.41012372468685) rotate(0 1.8826944577066342 3.765387786062149)" fill-rule="evenodd"><path d="M0 0 L3.77 0 L3.77 7.53 L0 7.53 L0 0" stroke="none" stroke-width="0" fill="#4285f4" fill-rule="evenodd"></path><path d="M0 0 C0.9 0, 1.8 0, 3.77 0 M0 0 C0.9 0, 1.8 0, 3.77 0 M3.77 0 C3.77 1.81, 3.77 3.63, 3.77 7.53 M3.77 0 C3.77 1.85, 3.77 3.7, 3.77 7.53 M3.77 7.53 C2.33 7.53, 0.89 7.53, 0 7.53 M3.77 7.53 C2.31 7.53, 0.85 7.53, 0 7.53 M0 7.53 C0 5.75, 0 3.97, 0 0 M0 7.53 C0 5.78, 0 4.03, 0 0 M0 0 C0 0, 0 0, 0 0 M0 0 C0 0, 0 0, 0 0" stroke="#00000000" stroke-width="1" fill="none"></path></g></g><g stroke-linecap="round"><g transform="translate(614.2051739441704 347.41012372468685) rotate(0 1.8826938930310462 3.765387786062149)" fill-rule="evenodd"><path d="M0 0 L3.77 0 L3.77 7.53 L0 7.53 L0 0" stroke="none" stroke-width="0" fill="#4285f4" fill-rule="evenodd"></path><path d="M0 0 C1.39 0, 2.78 0, 3.77 0 M0 0 C1.18 0, 2.36 0, 3.77 0 M3.77 0 C3.77 1.83, 3.77 3.66, 3.77 7.53 M3.77 0 C3.77 2.9, 3.77 5.8, 3.77 7.53 M3.77 7.53 C2.34 7.53, 0.91 7.53, 0 7.53 M3.77 7.53 C2.67 7.53, 1.57 7.53, 0 7.53 M0 7.53 C0 5.55, 0 3.57, 0 0 M0 7.53 C0 5.4, 0 3.27, 0 0 M0 0 C0 0, 0 0, 0 0 M0 0 C0 0, 0 0, 0 0" stroke="#00000000" stroke-width="1" fill="none"></path></g></g><g stroke-linecap="round"><g transform="translate(619.8532556232644 334.2312676028206) rotate(0 3.7653877860620923 1.8826933283554865)" fill-rule="evenodd"><path d="M0 0 L7.53 0 L7.53 3.77 L0 3.77 L0 0" stroke="none" stroke-width="0" fill="#4285f4" fill-rule="evenodd"></path><path d="M0 0 C2.69 0, 5.37 0, 7.53 0 M0 0 C2.49 0, 4.97 0, 7.53 0 M7.53 0 C7.53 0.91, 7.53 1.81, 7.53 3.77 M7.53 0 C7.53 1.47, 7.53 2.95, 7.53 3.77 M7.53 3.77 C5.86 3.77, 4.19 3.77, 0 3.77 M7.53 3.77 C5.39 3.77, 3.26 3.77, 0 3.77 M0 3.77 C0 2.59, 0 1.42, 0 0 M0 3.77 C0 2.3, 0 0.83, 0 0 M0 0 C0 0, 0 0, 0 0 M0 0 C0 0, 0 0, 0 0" stroke="#00000000" stroke-width="1" fill="none"></path></g></g><g stroke-linecap="round"><g transform="translate(619.8532556232644 341.76204204559326) rotate(0 3.7653877860620923 1.8826938930310746)" fill-rule="evenodd"><path d="M0 0 L7.53 0 L7.53 3.77 L0 3.77 L0 0" stroke="none" stroke-width="0" fill="#4285f4" fill-rule="evenodd"></path><path d="M0 0 C1.57 0, 3.15 0, 7.53 0 M0 0 C2.46 0, 4.91 0, 7.53 0 M7.53 0 C7.53 0.85, 7.53 1.69, 7.53 3.77 M7.53 0 C7.53 1.03, 7.53 2.07, 7.53 3.77 M7.53 3.77 C5.39 3.77, 3.24 3.77, 0 3.77 M7.53 3.77 C4.78 3.77, 2.03 3.77, 0 3.77 M0 3.77 C0 2.41, 0 1.05, 0 0 M0 3.77 C0 2.67, 0 1.58, 0 0 M0 0 C0 0, 0 0, 0 0 M0 0 C0 0, 0 0, 0 0" stroke="#00000000" stroke-width="1" fill="none"></path></g></g><g stroke-linecap="round"><g transform="translate(619.8532556232644 326.70049090134523) rotate(0 3.7653877860620923 1.8826938930310746)" fill-rule="evenodd"><path d="M0 0 L7.53 0 L7.53 3.77 L0 3.77 L0 0" stroke="none" stroke-width="0" fill="#4285f4" fill-rule="evenodd"></path><path d="M0 0 C2.87 0, 5.74 0, 7.53 0 M0 0 C1.51 0, 3.03 0, 7.53 0 M7.53 0 C7.53 1.01, 7.53 2.02, 7.53 3.77 M7.53 0 C7.53 0.82, 7.53 1.63, 7.53 3.77 M7.53 3.77 C5.25 3.77, 2.97 3.77, 0 3.77 M7.53 3.77 C5.92 3.77, 4.32 3.77, 0 3.77 M0 3.77 C0 2.96, 0 2.15, 0 0 M0 3.77 C0 2.44, 0 1.11, 0 0 M0 0 C0 0, 0 0, 0 0 M0 0 C0 0, 0 0, 0 0" stroke="#00000000" stroke-width="1" fill="none"></path></g></g><g stroke-linecap="round"><g transform="translate(589.7301516407392 334.2312676028206) rotate(0 3.7653880683999432 1.8826933283554865)" fill-rule="evenodd"><path d="M0 0 L7.53 0 L7.53 3.77 L0 3.77 L0 0" stroke="none" stroke-width="0" fill="#669df6" fill-rule="evenodd"></path><path d="M0 0 C1.92 0, 3.84 0, 7.53 0 M0 0 C1.88 0, 3.76 0, 7.53 0 M7.53 0 C7.53 1.45, 7.53 2.9, 7.53 3.77 M7.53 0 C7.53 0.82, 7.53 1.64, 7.53 3.77 M7.53 3.77 C5.94 3.77, 4.35 3.77, 0 3.77 M7.53 3.77 C4.91 3.77, 2.29 3.77, 0 3.77 M0 3.77 C0 2.8, 0 1.83, 0 0 M0 3.77 C0 2.8, 0 1.84, 0 0 M0 0 C0 0, 0 0, 0 0 M0 0 C0 0, 0 0, 0 0" stroke="#00000000" stroke-width="1" fill="none"></path></g></g><g stroke-linecap="round"><g transform="translate(589.7301516407392 341.76204204559326) rotate(0 3.7653880683999432 1.8826938930310746)" fill-rule="evenodd"><path d="M0 0 L7.53 0 L7.53 3.77 L0 3.77 L0 0" stroke="none" stroke-width="0" fill="#669df6" fill-rule="evenodd"></path><path d="M0 0 C1.95 0, 3.9 0, 7.53 0 M0 0 C2.52 0, 5.04 0, 7.53 0 M7.53 0 C7.53 1.16, 7.53 2.32, 7.53 3.77 M7.53 0 C7.53 0.76, 7.53 1.53, 7.53 3.77 M7.53 3.77 C5.26 3.77, 3 3.77, 0 3.77 M7.53 3.77 C4.89 3.77, 2.26 3.77, 0 3.77 M0 3.77 C0 2.74, 0 1.72, 0 0 M0 3.77 C0 2.32, 0 0.87, 0 0 M0 0 C0 0, 0 0, 0 0 M0 0 C0 0, 0 0, 0 0" stroke="#00000000" stroke-width="1" fill="none"></path></g></g><g stroke-linecap="round"><g transform="translate(589.7301516407392 326.70049090134523) rotate(0 3.7653880683999432 1.8826938930310746)" fill-rule="evenodd"><path d="M0 0 L7.53 0 L7.53 3.77 L0 3.77 L0 0" stroke="none" stroke-width="0" fill="#669df6" fill-rule="evenodd"></path><path d="M0 0 C1.87 0, 3.74 0, 7.53 0 M0 0 C1.7 0, 3.39 0, 7.53 0 M7.53 0 C7.53 1.17, 7.53 2.33, 7.53 3.77 M7.53 0 C7.53 0.95, 7.53 1.91, 7.53 3.77 M7.53 3.77 C4.63 3.77, 1.72 3.77, 0 3.77 M7.53 3.77 C5.84 3.77, 4.14 3.77, 0 3.77 M0 3.77 C0 2.58, 0 1.39, 0 0 M0 3.77 C0 2.76, 0 1.75, 0 0 M0 0 C0 0, 0 0, 0 0 M0 0 C0 0, 0 0, 0 0" stroke="#00000000" stroke-width="1" fill="none"></path></g></g><g stroke-linecap="round"><g transform="translate(595.3782338845085 322.93510255060755) rotate(0 13.178857815893025 13.178858662906435)" fill-rule="evenodd"><path d="M0 0 L0 26.36 L26.36 26.36 L26.36 0 L0 0 L0 0" stroke="none" stroke-width="0" fill="#aecbfa" fill-rule="evenodd"></path><path d="M0 0 C0 8.99, 0 17.99, 0 26.36 M0 0 C0 8.42, 0 16.85, 0 26.36 M0 26.36 C8.19 26.36, 16.37 26.36, 26.36 26.36 M0 26.36 C5.9 26.36, 11.79 26.36, 26.36 26.36 M26.36 26.36 C26.36 17.98, 26.36 9.59, 26.36 0 M26.36 26.36 C26.36 19.66, 26.36 12.96, 26.36 0 M26.36 0 C16.21 0, 6.07 0, 0 0 M26.36 0 C20.33 0, 14.3 0, 0 0 M0 0 C0 0, 0 0, 0 0 M0 0 C0 0, 0 0, 0 0 M0 0 C0 0, 0 0, 0 0 M0 0 C0 0, 0 0, 0 0" stroke="#00000000" stroke-width="1" fill="none"></path></g></g><g stroke-linecap="round"><g transform="translate(617.9705617302316 345.5274298316559) rotate(0 -9.413470029830933 -9.413469465155345)" fill-rule="evenodd"><path d="M0 0 L-18.83 0 L-18.83 -18.83 L0 -18.83 L0 0 L0 0" stroke="none" stroke-width="0" fill="#aecbfa" fill-rule="evenodd"></path><path d="M0 0 C-7.06 0, -14.12 0, -18.83 0 M0 0 C-6.91 0, -13.82 0, -18.83 0 M-18.83 0 C-18.83 -4.15, -18.83 -8.3, -18.83 -18.83 M-18.83 0 C-18.83 -6.55, -18.83 -13.09, -18.83 -18.83 M-18.83 -18.83 C-12.04 -18.83, -5.24 -18.83, 0 -18.83 M-18.83 -18.83 C-11.82 -18.83, -4.81 -18.83, 0 -18.83 M0 -18.83 C0 -14.73, 0 -10.63, 0 0 M0 -18.83 C0 -12.01, 0 -5.19, 0 0 M0 0 C0 0, 0 0, 0 0 M0 0 C0 0, 0 0, 0 0 M0 0 C0 0, 0 0, 0 0 M0 0 C0 0, 0 0, 0 0" stroke="#00000000" stroke-width="1" fill="none"></path></g></g><g stroke-linecap="round"><g transform="translate(617.9705617302316 345.5274298316559) rotate(0 -9.413470029830933 -9.413469465155345)" fill-rule="evenodd"><path d="M0 0 L-18.83 0 L-18.83 -18.83 L0 -18.83 L0 0 L0 0" stroke="none" stroke-width="0" fill="#fff" fill-rule="evenodd"></path><path d="M0 0 C-4.92 0, -9.85 0, -18.83 0 M0 0 C-6 0, -12 0, -18.83 0 M-18.83 0 C-18.83 -6.9, -18.83 -13.79, -18.83 -18.83 M-18.83 0 C-18.83 -6.07, -18.83 -12.15, -18.83 -18.83 M-18.83 -18.83 C-12.14 -18.83, -5.46 -18.83, 0 -18.83 M-18.83 -18.83 C-12.37 -18.83, -5.91 -18.83, 0 -18.83 M0 -18.83 C0 -14.67, 0 -10.5, 0 0 M0 -18.83 C0 -13.66, 0 -8.5, 0 0 M0 0 C0 0, 0 0, 0 0 M0 0 C0 0, 0 0, 0 0 M0 0 C0 0, 0 0, 0 0 M0 0 C0 0, 0 0, 0 0" stroke="#00000000" stroke-width="1" fill="none"></path></g></g><g stroke-linecap="round"><g transform="translate(602.9090105859846 330.4658786874071) rotate(0 5.648081679093252 5.648081679093224)" fill-rule="evenodd"><path d="M0 0 L11.3 0 L11.3 11.3 L0 11.3 L0 0" stroke="none" stroke-width="0" fill="#aecbfa" fill-rule="evenodd"></path><path d="M0 0 C2.7 0, 5.39 0, 11.3 0 M0 0 C2.72 0, 5.44 0, 11.3 0 M11.3 0 C11.3 2.77, 11.3 5.54, 11.3 11.3 M11.3 0 C11.3 4.31, 11.3 8.62, 11.3 11.3 M11.3 11.3 C6.93 11.3, 2.56 11.3, 0 11.3 M11.3 11.3 C8.62 11.3, 5.95 11.3, 0 11.3 M0 11.3 C0 8.67, 0 6.04, 0 0 M0 11.3 C0 7.85, 0 4.4, 0 0 M0 0 C0 0, 0 0, 0 0 M0 0 C0 0, 0 0, 0 0" stroke="#00000000" stroke-width="1" fill="none"></path></g></g><g stroke-linecap="round"><g transform="translate(602.9090105859846 341.7620420455938) rotate(0 5.648081679093252 -2.8240408395465977)" fill-rule="evenodd"><path d="M0 0 L11.3 0 L5.65 -5.65 L0 0" stroke="none" stroke-width="0" fill="#669df6" fill-rule="evenodd"></path><path d="M0 0 C3.53 0, 7.07 0, 11.3 0 M0 0 C2.75 0, 5.5 0, 11.3 0 M11.3 0 C9.12 -2.18, 6.95 -4.35, 5.65 -5.65 M11.3 0 C9.15 -2.14, 7.01 -4.28, 5.65 -5.65 M5.65 -5.65 C4 -4, 2.35 -2.35, 0 0 M5.65 -5.65 C4.16 -4.16, 2.68 -2.68, 0 0 M0 0 C0 0, 0 0, 0 0 M0 0 C0 0, 0 0, 0 0" stroke="#00000000" stroke-width="1" fill="none"></path></g></g><g stroke-linecap="round"><g transform="translate(608.5570922650763 336.1139603665003) rotate(0 2.8240408395465693 0)" fill-rule="evenodd"><path d="M0 0 L5.65 5.65 L5.65 -5.65 L0 0" stroke="none" stroke-width="0" fill="#4285f4" fill-rule="evenodd"></path><path d="M0 0 C1.86 1.86, 3.73 3.73, 5.65 5.65 M0 0 C1.36 1.36, 2.72 2.72, 5.65 5.65 M5.65 5.65 C5.65 1.23, 5.65 -3.2, 5.65 -5.65 M5.65 5.65 C5.65 3.14, 5.65 0.63, 5.65 -5.65 M5.65 -5.65 C4.05 -4.05, 2.44 -2.44, 0 0 M5.65 -5.65 C3.89 -3.89, 2.14 -2.14, 0 0 M0 0 C0 0, 0 0, 0 0 M0 0 C0 0, 0 0, 0 0" stroke="#00000000" stroke-width="1" fill="none"></path></g></g><g stroke-linecap="round" transform="translate(570 410) rotate(0 104.80263157894728 46.18421052631578)"><path d="M23.09 0 L186.51 0 L196.62 1.44 L200.58 3.25 L203.83 5.77 L206.36 9.02 L209.24 17.68 L209.61 69.28 L208.16 79.38 L206.36 83.35 L203.83 86.6 L200.58 89.12 L196.62 90.93 L186.51 92.37 L23.09 92.37 L12.99 90.93 L5.77 86.6 L3.25 83.35 L0.36 74.69 L0.36 17.68 L1.44 12.99 L5.77 5.77 L12.99 1.44 L23.09 0" stroke="none" stroke-width="0" fill="#FFF"></path><path d="M23.09 0 M23.09 0 C84.51 0, 145.92 0, 186.51 0 M23.09 0 C63.61 0, 104.14 0, 186.51 0 M186.51 0 C201.91 0, 209.61 7.7, 209.61 23.09 M186.51 0 C201.91 0, 209.61 7.7, 209.61 23.09 M209.61 23.09 C209.61 37.85, 209.61 52.6, 209.61 69.28 M209.61 23.09 C209.61 38.24, 209.61 53.38, 209.61 69.28 M209.61 69.28 C209.61 84.67, 201.91 92.37, 186.51 92.37 M209.61 69.28 C209.61 84.67, 201.91 92.37, 186.51 92.37 M186.51 92.37 C153.57 92.37, 120.62 92.37, 23.09 92.37 M186.51 92.37 C152.98 92.37, 119.45 92.37, 23.09 92.37 M23.09 92.37 C7.7 92.37, 0 84.67, 0 69.28 M23.09 92.37 C7.7 92.37, 0 84.67, 0 69.28 M0 69.28 C0 57.91, 0 46.54, 0 23.09 M0 69.28 C0 59.01, 0 48.74, 0 23.09 M0 23.09 C0 7.7, 7.7 0, 23.09 0 M0 23.09 C0 7.7, 7.7 0, 23.09 0" stroke="#4285f4" stroke-width="2" fill="none"></path></g><g transform="translate(641.0526315789489 446.68421052631544) rotate(0 60 9.5)"><text x="0" y="15" font-family="Helvetica, Segoe UI Emoji" font-size="16px" fill="#000000" text-anchor="start" style="white-space: pre;" direction="ltr">Compute Engine</text></g><g stroke-linecap="round"><g transform="translate(606.6743983720489 437.28702044800684) rotate(0 1.88269276367987 3.7653879978154805)" fill-rule="evenodd"><path d="M0 0 L3.77 0 L3.77 7.53 L0 7.53 L0 0" stroke="none" stroke-width="0" fill="#669df6" fill-rule="evenodd"></path><path d="M0 0 C1.11 0, 2.21 0, 3.77 0 M0 0 C1.1 0, 2.21 0, 3.77 0 M3.77 0 C3.77 2.6, 3.77 5.21, 3.77 7.53 M3.77 0 C3.77 1.79, 3.77 3.58, 3.77 7.53 M3.77 7.53 C2.35 7.53, 0.94 7.53, 0 7.53 M3.77 7.53 C2.78 7.53, 1.79 7.53, 0 7.53 M0 7.53 C0 5.12, 0 2.72, 0 0 M0 7.53 C0 5.23, 0 2.93, 0 0 M0 0 C0 0, 0 0, 0 0 M0 0 C0 0, 0 0, 0 0" stroke="#00000000" stroke-width="1" fill="none"></path></g></g><g stroke-linecap="round"><g transform="translate(599.1436216705733 437.28702044800684) rotate(0 1.8826944577066342 3.7653879978154805)" fill-rule="evenodd"><path d="M0 0 L3.77 0 L3.77 7.53 L0 7.53 L0 0" stroke="none" stroke-width="0" fill="#669df6" fill-rule="evenodd"></path><path d="M0 0 C0.87 0, 1.74 0, 3.77 0 M0 0 C1.09 0, 2.18 0, 3.77 0 M3.77 0 C3.77 2.86, 3.77 5.72, 3.77 7.53 M3.77 0 C3.77 2.45, 3.77 4.89, 3.77 7.53 M3.77 7.53 C2.41 7.53, 1.06 7.53, 0 7.53 M3.77 7.53 C2.67 7.53, 1.58 7.53, 0 7.53 M0 7.53 C0 4.81, 0 2.09, 0 0 M0 7.53 C0 5.46, 0 3.39, 0 0 M0 0 C0 0, 0 0, 0 0 M0 0 C0 0, 0 0, 0 0" stroke="#00000000" stroke-width="1" fill="none"></path></g></g><g stroke-linecap="round"><g transform="translate(614.2051739441731 437.28702044800684) rotate(0 1.8826938930310462 3.7653879978154805)" fill-rule="evenodd"><path d="M0 0 L3.77 0 L3.77 7.53 L0 7.53 L0 0" stroke="none" stroke-width="0" fill="#669df6" fill-rule="evenodd"></path><path d="M0 0 C1.34 0, 2.69 0, 3.77 0 M0 0 C0.76 0, 1.52 0, 3.77 0 M3.77 0 C3.77 2.78, 3.77 5.57, 3.77 7.53 M3.77 0 C3.77 1.56, 3.77 3.12, 3.77 7.53 M3.77 7.53 C2.88 7.53, 2 7.53, 0 7.53 M3.77 7.53 C2.78 7.53, 1.79 7.53, 0 7.53 M0 7.53 C0 5.87, 0 4.21, 0 0 M0 7.53 C0 5.48, 0 3.43, 0 0 M0 0 C0 0, 0 0, 0 0 M0 0 C0 0, 0 0, 0 0" stroke="#00000000" stroke-width="1" fill="none"></path></g></g><g stroke-linecap="round"><g transform="translate(606.6743983720489 467.4101237246862) rotate(0 1.88269276367987 3.765387786062149)" fill-rule="evenodd"><path d="M0 0 L3.77 0 L3.77 7.53 L0 7.53 L0 0" stroke="none" stroke-width="0" fill="#4285f4" fill-rule="evenodd"></path><path d="M0 0 C1.13 0, 2.27 0, 3.77 0 M0 0 C0.81 0, 1.61 0, 3.77 0 M3.77 0 C3.77 1.76, 3.77 3.53, 3.77 7.53 M3.77 0 C3.77 1.84, 3.77 3.68, 3.77 7.53 M3.77 7.53 C2.79 7.53, 1.82 7.53, 0 7.53 M3.77 7.53 C2.74 7.53, 1.72 7.53, 0 7.53 M0 7.53 C0 5.25, 0 2.97, 0 0 M0 7.53 C0 5.09, 0 2.64, 0 0 M0 0 C0 0, 0 0, 0 0 M0 0 C0 0, 0 0, 0 0" stroke="#00000000" stroke-width="1" fill="none"></path></g></g><g stroke-linecap="round"><g transform="translate(599.1436216705733 467.4101237246862) rotate(0 1.8826944577066342 3.765387786062149)" fill-rule="evenodd"><path d="M0 0 L3.77 0 L3.77 7.53 L0 7.53 L0 0" stroke="none" stroke-width="0" fill="#4285f4" fill-rule="evenodd"></path><path d="M0 0 C1.09 0, 2.18 0, 3.77 0 M0 0 C1.41 0, 2.83 0, 3.77 0 M3.77 0 C3.77 1.84, 3.77 3.68, 3.77 7.53 M3.77 0 C3.77 1.88, 3.77 3.76, 3.77 7.53 M3.77 7.53 C2.6 7.53, 1.44 7.53, 0 7.53 M3.77 7.53 C2.81 7.53, 1.85 7.53, 0 7.53 M0 7.53 C0 5.52, 0 3.52, 0 0 M0 7.53 C0 5.05, 0 2.58, 0 0 M0 0 C0 0, 0 0, 0 0 M0 0 C0 0, 0 0, 0 0" stroke="#00000000" stroke-width="1" fill="none"></path></g></g><g stroke-linecap="round"><g transform="translate(614.2051739441731 467.4101237246862) rotate(0 1.8826938930310462 3.765387786062149)" fill-rule="evenodd"><path d="M0 0 L3.77 0 L3.77 7.53 L0 7.53 L0 0" stroke="none" stroke-width="0" fill="#4285f4" fill-rule="evenodd"></path><path d="M0 0 C0.99 0, 1.98 0, 3.77 0 M0 0 C1.34 0, 2.68 0, 3.77 0 M3.77 0 C3.77 2.04, 3.77 4.07, 3.77 7.53 M3.77 0 C3.77 2.39, 3.77 4.77, 3.77 7.53 M3.77 7.53 C2.8 7.53, 1.83 7.53, 0 7.53 M3.77 7.53 C2.47 7.53, 1.18 7.53, 0 7.53 M0 7.53 C0 5.61, 0 3.69, 0 0 M0 7.53 C0 4.62, 0 1.7, 0 0 M0 0 C0 0, 0 0, 0 0 M0 0 C0 0, 0 0, 0 0" stroke="#00000000" stroke-width="1" fill="none"></path></g></g><g stroke-linecap="round"><g transform="translate(619.8532556232667 454.2312676028198) rotate(0 3.7653877860620923 1.8826933283554865)" fill-rule="evenodd"><path d="M0 0 L7.53 0 L7.53 3.77 L0 3.77 L0 0" stroke="none" stroke-width="0" fill="#4285f4" fill-rule="evenodd"></path><path d="M0 0 C2.7 0, 5.39 0, 7.53 0 M0 0 C2.13 0, 4.26 0, 7.53 0 M7.53 0 C7.53 1.3, 7.53 2.6, 7.53 3.77 M7.53 0 C7.53 0.78, 7.53 1.56, 7.53 3.77 M7.53 3.77 C5.75 3.77, 3.96 3.77, 0 3.77 M7.53 3.77 C5.62 3.77, 3.71 3.77, 0 3.77 M0 3.77 C0 2.96, 0 2.15, 0 0 M0 3.77 C0 2.41, 0 1.06, 0 0 M0 0 C0 0, 0 0, 0 0 M0 0 C0 0, 0 0, 0 0" stroke="#00000000" stroke-width="1" fill="none"></path></g></g><g stroke-linecap="round"><g transform="translate(619.8532556232667 461.76204204559326) rotate(0 3.7653877860620923 1.8826938930310746)" fill-rule="evenodd"><path d="M0 0 L7.53 0 L7.53 3.77 L0 3.77 L0 0" stroke="none" stroke-width="0" fill="#4285f4" fill-rule="evenodd"></path><path d="M0 0 C2.02 0, 4.04 0, 7.53 0 M0 0 C2.78 0, 5.57 0, 7.53 0 M7.53 0 C7.53 1.37, 7.53 2.73, 7.53 3.77 M7.53 0 C7.53 1.37, 7.53 2.73, 7.53 3.77 M7.53 3.77 C5.66 3.77, 3.8 3.77, 0 3.77 M7.53 3.77 C5.68 3.77, 3.83 3.77, 0 3.77 M0 3.77 C0 2.53, 0 1.3, 0 0 M0 3.77 C0 2.35, 0 0.93, 0 0 M0 0 C0 0, 0 0, 0 0 M0 0 C0 0, 0 0, 0 0" stroke="#00000000" stroke-width="1" fill="none"></path></g></g><g stroke-linecap="round"><g transform="translate(619.8532556232667 446.7004909013443) rotate(0 3.7653877860620923 1.8826938930310746)" fill-rule="evenodd"><path d="M0 0 L7.53 0 L7.53 3.77 L0 3.77 L0 0" stroke="none" stroke-width="0" fill="#4285f4" fill-rule="evenodd"></path><path d="M0 0 C1.85 0, 3.71 0, 7.53 0 M0 0 C1.72 0, 3.44 0, 7.53 0 M7.53 0 C7.53 1.24, 7.53 2.48, 7.53 3.77 M7.53 0 C7.53 1.32, 7.53 2.64, 7.53 3.77 M7.53 3.77 C5.29 3.77, 3.05 3.77, 0 3.77 M7.53 3.77 C4.57 3.77, 1.6 3.77, 0 3.77 M0 3.77 C0 2.56, 0 1.36, 0 0 M0 3.77 C0 2.42, 0 1.08, 0 0 M0 0 C0 0, 0 0, 0 0 M0 0 C0 0, 0 0, 0 0" stroke="#00000000" stroke-width="1" fill="none"></path></g></g><g stroke-linecap="round"><g transform="translate(589.7301516407424 454.2312676028198) rotate(0 3.7653880683999432 1.8826933283554865)" fill-rule="evenodd"><path d="M0 0 L7.53 0 L7.53 3.77 L0 3.77 L0 0" stroke="none" stroke-width="0" fill="#669df6" fill-rule="evenodd"></path><path d="M0 0 C2.64 0, 5.29 0, 7.53 0 M0 0 C2.23 0, 4.47 0, 7.53 0 M7.53 0 C7.53 1.34, 7.53 2.68, 7.53 3.77 M7.53 0 C7.53 0.95, 7.53 1.89, 7.53 3.77 M7.53 3.77 C5.37 3.77, 3.2 3.77, 0 3.77 M7.53 3.77 C5.07 3.77, 2.61 3.77, 0 3.77 M0 3.77 C0 2.7, 0 1.63, 0 0 M0 3.77 C0 2.74, 0 1.71, 0 0 M0 0 C0 0, 0 0, 0 0 M0 0 C0 0, 0 0, 0 0" stroke="#00000000" stroke-width="1" fill="none"></path></g></g><g stroke-linecap="round"><g transform="translate(589.7301516407424 461.76204204559326) rotate(0 3.7653880683999432 1.8826938930310746)" fill-rule="evenodd"><path d="M0 0 L7.53 0 L7.53 3.77 L0 3.77 L0 0" stroke="none" stroke-width="0" fill="#669df6" fill-rule="evenodd"></path><path d="M0 0 C1.79 0, 3.57 0, 7.53 0 M0 0 C2.47 0, 4.94 0, 7.53 0 M7.53 0 C7.53 0.78, 7.53 1.56, 7.53 3.77 M7.53 0 C7.53 0.95, 7.53 1.91, 7.53 3.77 M7.53 3.77 C4.63 3.77, 1.72 3.77, 0 3.77 M7.53 3.77 C5.27 3.77, 3.01 3.77, 0 3.77 M0 3.77 C0 2.97, 0 2.17, 0 0 M0 3.77 C0 2.65, 0 1.53, 0 0 M0 0 C0 0, 0 0, 0 0 M0 0 C0 0, 0 0, 0 0" stroke="#00000000" stroke-width="1" fill="none"></path></g></g><g stroke-linecap="round"><g transform="translate(589.7301516407424 446.7004909013443) rotate(0 3.7653880683999432 1.8826938930310746)" fill-rule="evenodd"><path d="M0 0 L7.53 0 L7.53 3.77 L0 3.77 L0 0" stroke="none" stroke-width="0" fill="#669df6" fill-rule="evenodd"></path><path d="M0 0 C2.21 0, 4.42 0, 7.53 0 M0 0 C2.6 0, 5.21 0, 7.53 0 M7.53 0 C7.53 0.9, 7.53 1.79, 7.53 3.77 M7.53 0 C7.53 1.42, 7.53 2.83, 7.53 3.77 M7.53 3.77 C5.56 3.77, 3.59 3.77, 0 3.77 M7.53 3.77 C5.12 3.77, 2.72 3.77, 0 3.77 M0 3.77 C0 2.62, 0 1.47, 0 0 M0 3.77 C0 3.01, 0 2.25, 0 0 M0 0 C0 0, 0 0, 0 0 M0 0 C0 0, 0 0, 0 0" stroke="#00000000" stroke-width="1" fill="none"></path></g></g><g stroke-linecap="round"><g transform="translate(595.3782338845117 442.93510255060653) rotate(0 13.178857815893025 13.178858662906435)" fill-rule="evenodd"><path d="M0 0 L0 26.36 L26.36 26.36 L26.36 0 L0 0 L0 0" stroke="none" stroke-width="0" fill="#aecbfa" fill-rule="evenodd"></path><path d="M0 0 C0 7.62, 0 15.24, 0 26.36 M0 0 C0 10, 0 20.01, 0 26.36 M0 26.36 C8.57 26.36, 17.13 26.36, 26.36 26.36 M0 26.36 C9.48 26.36, 18.95 26.36, 26.36 26.36 M26.36 26.36 C26.36 18.72, 26.36 11.08, 26.36 0 M26.36 26.36 C26.36 16.83, 26.36 7.3, 26.36 0 M26.36 0 C19.11 0, 11.87 0, 0 0 M26.36 0 C18.19 0, 10.01 0, 0 0 M0 0 C0 0, 0 0, 0 0 M0 0 C0 0, 0 0, 0 0 M0 0 C0 0, 0 0, 0 0 M0 0 C0 0, 0 0, 0 0" stroke="#00000000" stroke-width="1" fill="none"></path></g></g><g stroke-linecap="round"><g transform="translate(617.9705617302352 465.527429831655) rotate(0 -9.413470029830933 -9.413469465155345)" fill-rule="evenodd"><path d="M0 0 L-18.83 0 L-18.83 -18.83 L0 -18.83 L0 0 L0 0" stroke="none" stroke-width="0" fill="#aecbfa" fill-rule="evenodd"></path><path d="M0 0 C-3.79 0, -7.59 0, -18.83 0 M0 0 C-6.96 0, -13.92 0, -18.83 0 M-18.83 0 C-18.83 -3.9, -18.83 -7.8, -18.83 -18.83 M-18.83 0 C-18.83 -4.42, -18.83 -8.85, -18.83 -18.83 M-18.83 -18.83 C-13.9 -18.83, -8.96 -18.83, 0 -18.83 M-18.83 -18.83 C-14.68 -18.83, -10.53 -18.83, 0 -18.83 M0 -18.83 C0 -13.7, 0 -8.58, 0 0 M0 -18.83 C0 -14.87, 0 -10.92, 0 0 M0 0 C0 0, 0 0, 0 0 M0 0 C0 0, 0 0, 0 0 M0 0 C0 0, 0 0, 0 0 M0 0 C0 0, 0 0, 0 0" stroke="#00000000" stroke-width="1" fill="none"></path></g></g><g stroke-linecap="round"><g transform="translate(617.9705617302352 465.527429831655) rotate(0 -9.413470029830933 -9.413469465155345)" fill-rule="evenodd"><path d="M0 0 L-18.83 0 L-18.83 -18.83 L0 -18.83 L0 0 L0 0" stroke="none" stroke-width="0" fill="#fff" fill-rule="evenodd"></path><path d="M0 0 C-4.03 0, -8.06 0, -18.83 0 M0 0 C-4.41 0, -8.82 0, -18.83 0 M-18.83 0 C-18.83 -4.6, -18.83 -9.21, -18.83 -18.83 M-18.83 0 C-18.83 -4.87, -18.83 -9.73, -18.83 -18.83 M-18.83 -18.83 C-13.71 -18.83, -8.6 -18.83, 0 -18.83 M-18.83 -18.83 C-13.13 -18.83, -7.43 -18.83, 0 -18.83 M0 -18.83 C0 -12.72, 0 -6.61, 0 0 M0 -18.83 C0 -12.2, 0 -5.58, 0 0 M0 0 C0 0, 0 0, 0 0 M0 0 C0 0, 0 0, 0 0 M0 0 C0 0, 0 0, 0 0 M0 0 C0 0, 0 0, 0 0" stroke="#00000000" stroke-width="1" fill="none"></path></g></g><g stroke-linecap="round"><g transform="translate(602.9090105859859 450.46587868740676) rotate(0 5.648081679093252 5.648081679093224)" fill-rule="evenodd"><path d="M0 0 L11.3 0 L11.3 11.3 L0 11.3 L0 0" stroke="none" stroke-width="0" fill="#aecbfa" fill-rule="evenodd"></path><path d="M0 0 C4.24 0, 8.49 0, 11.3 0 M0 0 C2.76 0, 5.52 0, 11.3 0 M11.3 0 C11.3 2.82, 11.3 5.64, 11.3 11.3 M11.3 0 C11.3 3.49, 11.3 6.97, 11.3 11.3 M11.3 11.3 C8.42 11.3, 5.55 11.3, 0 11.3 M11.3 11.3 C8.29 11.3, 5.28 11.3, 0 11.3 M0 11.3 C0 7.58, 0 3.87, 0 0 M0 11.3 C0 7.39, 0 3.48, 0 0 M0 0 C0 0, 0 0, 0 0 M0 0 C0 0, 0 0, 0 0" stroke="#00000000" stroke-width="1" fill="none"></path></g></g><g stroke-linecap="round"><g transform="translate(602.9090105859859 461.7620420455931) rotate(0 5.648081679093252 -2.8240408395465977)" fill-rule="evenodd"><path d="M0 0 L11.3 0 L5.65 -5.65 L0 0" stroke="none" stroke-width="0" fill="#669df6" fill-rule="evenodd"></path><path d="M0 0 C4.03 0, 8.05 0, 11.3 0 M0 0 C3.05 0, 6.11 0, 11.3 0 M11.3 0 C9.51 -1.79, 7.72 -3.58, 5.65 -5.65 M11.3 0 C9.85 -1.45, 8.4 -2.9, 5.65 -5.65 M5.65 -5.65 C3.71 -3.71, 1.77 -1.77, 0 0 M5.65 -5.65 C4.21 -4.21, 2.77 -2.77, 0 0 M0 0 C0 0, 0 0, 0 0 M0 0 C0 0, 0 0, 0 0" stroke="#00000000" stroke-width="1" fill="none"></path></g></g><g stroke-linecap="round"><g transform="translate(608.5570922650795 456.11396036649995) rotate(0 2.8240408395465693 0)" fill-rule="evenodd"><path d="M0 0 L5.65 5.65 L5.65 -5.65 L0 0" stroke="none" stroke-width="0" fill="#4285f4" fill-rule="evenodd"></path><path d="M0 0 C1.6 1.6, 3.2 3.2, 5.65 5.65 M0 0 C1.95 1.95, 3.91 3.91, 5.65 5.65 M5.65 5.65 C5.65 3.31, 5.65 0.97, 5.65 -5.65 M5.65 5.65 C5.65 2.97, 5.65 0.3, 5.65 -5.65 M5.65 -5.65 C4.22 -4.22, 2.78 -2.78, 0 0 M5.65 -5.65 C4.44 -4.44, 3.22 -3.22, 0 0 M0 0 C0 0, 0 0, 0 0 M0 0 C0 0, 0 0, 0 0" stroke="#00000000" stroke-width="1" fill="none"></path></g></g><g stroke-opacity="0.2" fill-opacity="0.2" stroke-linecap="round" transform="translate(30 170) rotate(0 430.0000000000002 244.47368421052636)"><path d="M0 0 C188.01 0, 376.03 0, 860 0 M0 0 C251.97 0, 503.95 0, 860 0 M860 0 C860 100.22, 860 200.44, 860 488.95 M860 0 C860 132.18, 860 264.35, 860 488.95 M860 488.95 C572.59 488.95, 285.18 488.95, 0 488.95 M860 488.95 C530.93 488.95, 201.86 488.95, 0 488.95 M0 488.95 C0 300.62, 0 112.29, 0 0 M0 488.95 C0 385.7, 0 282.44, 0 0" stroke="#202124" stroke-width="1" fill="none"></path></g><g stroke-linecap="round" transform="translate(10 10) rotate(0 450 40)"><path d="M0 0 L900 0 L900 80 L0 80" stroke="none" stroke-width="0" fill="#e5e7ea"></path><path d="M0 0 C236.9 0, 473.79 0, 900 0 M0 0 C299.36 0, 598.72 0, 900 0 M900 0 C900 25.55, 900 51.09, 900 80 M900 0 C900 21.16, 900 42.32, 900 80 M900 80 C633.82 80, 367.65 80, 0 80 M900 80 C613.17 80, 326.34 80, 0 80 M0 80 C0 54.85, 0 29.7, 0 0 M0 80 C0 57.95, 0 35.9, 0 0" stroke="#e5e7ea" stroke-width="1" fill="none"></path></g><g stroke-linecap="round"><g transform="translate(429.8333329409361 62.99999810010206) rotate(0 -17.333334416150933 -12.999998100102054)" fill-rule="evenodd"><path d="M0 0 L0 0 L1.68 -0.34 L3.05 -1.27 L3.97 -2.65 L4.31 -4.33 L4.33 -26 L4.33 -26 L3.99 -27.68 L3.06 -29.06 L1.68 -29.99 L0 -30.33 L-34.67 -30.33 L-34.67 -30.33 L-36.35 -29.99 L-37.73 -29.06 L-38.66 -27.68 L-39 -26 L-39 -4.33 L-39 -4.33 L-38.66 -2.65 L-37.73 -1.27 L-36.35 -0.34 L-34.67 0 L-43.33 0 L-43.33 4.33 L8.67 4.33 L8.67 0 L0 0 L0 0" stroke="none" stroke-width="0" fill="#000" fill-rule="evenodd"></path><path d="M0 0 C0 0, 0 0, 0 0 M0 0 C0 0, 0 0, 0 0 M0 0 C0.56 -0.11, 1.12 -0.23, 1.68 -0.34 M0 0 C0.47 -0.1, 0.94 -0.19, 1.68 -0.34 M1.68 -0.34 C2.04 -0.59, 2.41 -0.84, 3.05 -1.27 M1.68 -0.34 C2.06 -0.6, 2.43 -0.85, 3.05 -1.27 M3.05 -1.27 C3.37 -1.76, 3.7 -2.24, 3.97 -2.65 M3.05 -1.27 C3.27 -1.6, 3.49 -1.94, 3.97 -2.65 M3.97 -2.65 C4.09 -3.23, 4.21 -3.81, 4.31 -4.33 M3.97 -2.65 C4.05 -3.04, 4.13 -3.43, 4.31 -4.33 M4.31 -4.33 C4.32 -11.79, 4.33 -19.24, 4.33 -26 M4.31 -4.33 C4.32 -11.87, 4.33 -19.4, 4.33 -26 M4.33 -26 C4.33 -26, 4.33 -26, 4.33 -26 M4.33 -26 C4.33 -26, 4.33 -26, 4.33 -26 M4.33 -26 C4.26 -26.37, 4.18 -26.74, 3.99 -27.68 M4.33 -26 C4.24 -26.46, 4.15 -26.91, 3.99 -27.68 M3.99 -27.68 C3.62 -28.23, 3.26 -28.77, 3.06 -29.06 M3.99 -27.68 C3.68 -28.15, 3.37 -28.61, 3.06 -29.06 M3.06 -29.06 C2.67 -29.32, 2.28 -29.59, 1.68 -29.99 M3.06 -29.06 C2.76 -29.26, 2.46 -29.47, 1.68 -29.99 M1.68 -29.99 C1.29 -30.07, 0.89 -30.15, 0 -30.33 M1.68 -29.99 C1.31 -30.07, 0.93 -30.14, 0 -30.33 M0 -30.33 C-10.74 -30.33, -21.47 -30.33, -34.67 -30.33 M0 -30.33 C-8.32 -30.33, -16.64 -30.33, -34.67 -30.33 M-34.67 -30.33 C-34.67 -30.33, -34.67 -30.33, -34.67 -30.33 M-34.67 -30.33 C-34.67 -30.33, -34.67 -30.33, -34.67 -30.33 M-34.67 -30.33 C-35.13 -30.24, -35.59 -30.15, -36.35 -29.99 M-34.67 -30.33 C-35.21 -30.22, -35.75 -30.11, -36.35 -29.99 M-36.35 -29.99 C-36.83 -29.67, -37.31 -29.34, -37.73 -29.06 M-36.35 -29.99 C-36.83 -29.67, -37.3 -29.35, -37.73 -29.06 M-37.73 -29.06 C-37.94 -28.74, -38.16 -28.42, -38.66 -27.68 M-37.73 -29.06 C-37.99 -28.67, -38.26 -28.27, -38.66 -27.68 M-38.66 -27.68 C-38.73 -27.33, -38.8 -26.98, -39 -26 M-38.66 -27.68 C-38.78 -27.08, -38.9 -26.48, -39 -26 M-39 -26 C-39 -21.16, -39 -16.31, -39 -4.33 M-39 -26 C-39 -19.44, -39 -12.89, -39 -4.33 M-39 -4.33 C-39 -4.33, -39 -4.33, -39 -4.33 M-39 -4.33 C-39 -4.33, -39 -4.33, -39 -4.33 M-39 -4.33 C-38.87 -3.7, -38.74 -3.06, -38.66 -2.65 M-39 -4.33 C-38.87 -3.71, -38.74 -3.08, -38.66 -2.65 M-38.66 -2.65 C-38.41 -2.29, -38.17 -1.92, -37.73 -1.27 M-38.66 -2.65 C-38.39 -2.25, -38.12 -1.85, -37.73 -1.27 M-37.73 -1.27 C-37.44 -1.08, -37.16 -0.89, -36.35 -0.34 M-37.73 -1.27 C-37.39 -1.05, -37.06 -0.82, -36.35 -0.34 M-36.35 -0.34 C-35.74 -0.22, -35.12 -0.09, -34.67 0 M-36.35 -0.34 C-35.98 -0.27, -35.61 -0.19, -34.67 0 M-34.67 0 C-37.36 0, -40.05 0, -43.33 0 M-34.67 0 C-37.17 0, -39.68 0, -43.33 0 M-43.33 0 C-43.33 1.04, -43.33 2.08, -43.33 4.33 M-43.33 0 C-43.33 0.95, -43.33 1.9, -43.33 4.33 M-43.33 4.33 C-29.01 4.33, -14.69 4.33, 8.67 4.33 M-43.33 4.33 C-30.96 4.33, -18.59 4.33, 8.67 4.33 M8.67 4.33 C8.67 3.11, 8.67 1.89, 8.67 0 M8.67 4.33 C8.67 3.19, 8.67 2.05, 8.67 0 M8.67 0 C5.44 0, 2.22 0, 0 0 M8.67 0 C6.52 0, 4.37 0, 0 0 M0 0 C0 0, 0 0, 0 0 M0 0 C0 0, 0 0, 0 0 M0 0 C0 0, 0 0, 0 0 M0 0 C0 0, 0 0, 0 0" stroke="#00000000" stroke-width="1" fill="none"></path></g></g><g stroke-linecap="round"><g transform="translate(395.16666643321514 36.999999575316906) rotate(0 17.333333253860474 10.83333323523403)" fill-rule="evenodd"><path d="M0 0 L34.67 0 L34.67 21.67 L0 21.67 L0 0" stroke="none" stroke-width="0" fill="#ffffff" fill-rule="evenodd"></path><path d="M0 0 C10.9 0, 21.8 0, 34.67 0 M0 0 C9.28 0, 18.55 0, 34.67 0 M34.67 0 C34.67 4.35, 34.67 8.71, 34.67 21.67 M34.67 0 C34.67 5.73, 34.67 11.46, 34.67 21.67 M34.67 21.67 C26.93 21.67, 19.19 21.67, 0 21.67 M34.67 21.67 C22.32 21.67, 9.97 21.67, 0 21.67 M0 21.67 C0 16.36, 0 11.06, 0 0 M0 21.67 C0 17.15, 0 12.64, 0 0 M0 0 C0 0, 0 0, 0 0 M0 0 C0 0, 0 0, 0 0" stroke="#00000000" stroke-width="1" fill="none"></path></g></g><g stroke-linecap="round"><g transform="translate(511.0909094406552 30.68424242659296) rotate(0 -8.787879457404756 19.315757573407044)" fill-rule="evenodd"><path d="M0 0 L-17.58 -0.02 L-17.58 -0.02 L-18.94 0.26 L-20.06 1.02 L-20.81 2.13 L-21.09 3.5 L-21.09 35.13 L-21.09 35.13 L-20.81 36.5 L-20.06 37.62 L-18.94 38.37 L-17.58 38.65 L0 38.65 L0 38.65 L1.36 38.37 L2.48 37.62 L3.24 36.5 L3.52 35.13 L3.52 3.5 L3.52 3.5 L3.24 2.14 L2.48 1.02 L1.36 0.27 L0 0 L0 0" stroke="none" stroke-width="0" fill="#000" fill-rule="evenodd"></path><path d="M0 0 C-3.77 0, -7.54 -0.01, -17.58 -0.02 M0 0 C-5.41 -0.01, -10.82 -0.01, -17.58 -0.02 M-17.58 -0.02 C-17.58 -0.02, -17.58 -0.02, -17.58 -0.02 M-17.58 -0.02 C-17.58 -0.02, -17.58 -0.02, -17.58 -0.02 M-17.58 -0.02 C-18.01 0.07, -18.44 0.16, -18.94 0.26 M-17.58 -0.02 C-17.87 0.04, -18.16 0.1, -18.94 0.26 M-18.94 0.26 C-19.26 0.48, -19.58 0.69, -20.06 1.02 M-18.94 0.26 C-19.24 0.46, -19.55 0.67, -20.06 1.02 M-20.06 1.02 C-20.27 1.32, -20.47 1.63, -20.81 2.13 M-20.06 1.02 C-20.24 1.29, -20.42 1.56, -20.81 2.13 M-20.81 2.13 C-20.9 2.55, -20.98 2.96, -21.09 3.5 M-20.81 2.13 C-20.87 2.41, -20.93 2.68, -21.09 3.5 M-21.09 3.5 C-21.09 12.02, -21.09 20.54, -21.09 35.13 M-21.09 3.5 C-21.09 13.83, -21.09 24.16, -21.09 35.13 M-21.09 35.13 C-21.09 35.13, -21.09 35.13, -21.09 35.13 M-21.09 35.13 C-21.09 35.13, -21.09 35.13, -21.09 35.13 M-21.09 35.13 C-20.99 35.62, -20.89 36.1, -20.81 36.5 M-21.09 35.13 C-21.02 35.46, -20.96 35.79, -20.81 36.5 M-20.81 36.5 C-20.62 36.79, -20.43 37.07, -20.06 37.62 M-20.81 36.5 C-20.54 36.9, -20.27 37.31, -20.06 37.62 M-20.06 37.62 C-19.64 37.9, -19.22 38.19, -18.94 38.37 M-20.06 37.62 C-19.73 37.84, -19.4 38.06, -18.94 38.37 M-18.94 38.37 C-18.46 38.47, -17.97 38.57, -17.58 38.65 M-18.94 38.37 C-18.47 38.47, -18.01 38.56, -17.58 38.65 M-17.58 38.65 C-12.91 38.65, -8.24 38.65, 0 38.65 M-17.58 38.65 C-13.29 38.65, -9.01 38.65, 0 38.65 M0 38.65 C0 38.65, 0 38.65, 0 38.65 M0 38.65 C0 38.65, 0 38.65, 0 38.65 M0 38.65 C0.46 38.56, 0.92 38.46, 1.36 38.37 M0 38.65 C0.51 38.55, 1.02 38.44, 1.36 38.37 M1.36 38.37 C1.61 38.2, 1.86 38.04, 2.48 37.62 M1.36 38.37 C1.8 38.08, 2.23 37.79, 2.48 37.62 M2.48 37.62 C2.78 37.17, 3.08 36.73, 3.24 36.5 M2.48 37.62 C2.64 37.38, 2.81 37.14, 3.24 36.5 M3.24 36.5 C3.31 36.13, 3.39 35.76, 3.52 35.13 M3.24 36.5 C3.3 36.18, 3.37 35.85, 3.52 35.13 M3.52 35.13 C3.52 27.76, 3.52 20.38, 3.52 3.5 M3.52 35.13 C3.52 27.75, 3.52 20.36, 3.52 3.5 M3.52 3.5 C3.52 3.5, 3.52 3.5, 3.52 3.5 M3.52 3.5 C3.52 3.5, 3.52 3.5, 3.52 3.5 M3.52 3.5 C3.43 3.06, 3.34 2.63, 3.24 2.14 M3.52 3.5 C3.42 3.04, 3.33 2.57, 3.24 2.14 M3.24 2.14 C2.95 1.72, 2.67 1.3, 2.48 1.02 M3.24 2.14 C3.08 1.9, 2.91 1.66, 2.48 1.02 M2.48 1.02 C2.13 0.79, 1.78 0.56, 1.36 0.27 M2.48 1.02 C2.06 0.74, 1.64 0.46, 1.36 0.27 M1.36 0.27 C1.06 0.21, 0.75 0.15, 0 0 M1.36 0.27 C0.87 0.18, 0.38 0.08, 0 0 M0 0 C0 0, 0 0, 0 0 M0 0 C0 0, 0 0, 0 0 M0 0 C0 0, 0 0, 0 0 M0 0 C0 0, 0 0, 0 0" stroke="#00000000" stroke-width="1" fill="none"></path></g></g><g stroke-linecap="round"><g transform="translate(511.0909094406552 62.303029747541274) rotate(0 -8.787878828846715 -12.303029983250575)" fill-rule="evenodd"><path d="M0 0 L-17.58 0 L-17.58 -24.61 L0 -24.61 L0 0" stroke="none" stroke-width="0" fill="#ffffff" fill-rule="evenodd"></path><path d="M0 0 C-4.91 0, -9.83 0, -17.58 0 M0 0 C-6.18 0, -12.36 0, -17.58 0 M-17.58 0 C-17.58 -5.95, -17.58 -11.9, -17.58 -24.61 M-17.58 0 C-17.58 -9.26, -17.58 -18.52, -17.58 -24.61 M-17.58 -24.61 C-10.68 -24.61, -3.78 -24.61, 0 -24.61 M-17.58 -24.61 C-12.11 -24.61, -6.64 -24.61, 0 -24.61 M0 -24.61 C0 -19.61, 0 -14.61, 0 0 M0 -24.61 C0 -15.01, 0 -5.42, 0 0 M0 0 C0 0, 0 0, 0 0 M0 0 C0 0, 0 0, 0 0" stroke="#00000000" stroke-width="1" fill="none"></path></g></g><g transform="translate(830 26) rotate(0 31 11.5)"><text x="0" y="19" font-family="Helvetica, Segoe UI Emoji" font-size="20px" fill="#8a8888" text-anchor="start" style="white-space: pre;" direction="ltr">Clients</text></g><g stroke-linecap="round"><g transform="translate(214.3158579965475 89.99999999999994) rotate(0 0.8623350883997318 110.00000000000004)"><path d="M0 0 C0.29 36.67, 1.44 183.33, 1.72 220 M0 0 C0.29 36.67, 1.44 183.33, 1.72 220" stroke="#16459c" stroke-width="2" fill="none"></path></g><g transform="translate(214.3158579965475 89.99999999999994) rotate(0 0.8623350883997318 110.00000000000004)"><path d="M1.72 220 L-4.72 206.46 L7.96 206.36 L1.72 220" stroke="none" stroke-width="0" fill="#16459c" fill-rule="evenodd"></path><path d="M1.72 220 C-0.8 214.7, -3.32 209.41, -4.72 206.46 M1.72 220 C-0.28 215.78, -2.29 211.56, -4.72 206.46 M-4.72 206.46 C-1.89 206.43, 0.94 206.41, 7.96 206.36 M-4.72 206.46 C-0.2 206.42, 4.31 206.38, 7.96 206.36 M7.96 206.36 C5.94 210.77, 3.93 215.18, 1.72 220 M7.96 206.36 C6.03 210.57, 4.11 214.78, 1.72 220 M1.72 220 C1.72 220, 1.72 220, 1.72 220 M1.72 220 C1.72 220, 1.72 220, 1.72 220" stroke="#16459c" stroke-width="2" fill="none"></path></g></g><g stroke-linecap="round" transform="translate(230 270) rotate(0 10 10)"><path d="M20 10 C20 10.58, 19.95 11.17, 19.85 11.74 C19.75 12.31, 19.59 12.88, 19.4 13.42 C19.2 13.96, 18.95 14.5, 18.66 15 C18.37 15.5, 18.03 15.98, 17.66 16.43 C17.29 16.87, 16.87 17.29, 16.43 17.66 C15.98 18.03, 15.5 18.37, 15 18.66 C14.5 18.95, 13.96 19.2, 13.42 19.4 C12.88 19.59, 12.31 19.75, 11.74 19.85 C11.17 19.95, 10.58 20, 10 20 C9.42 20, 8.83 19.95, 8.26 19.85 C7.69 19.75, 7.12 19.59, 6.58 19.4 C6.04 19.2, 5.5 18.95, 5 18.66 C4.5 18.37, 4.02 18.03, 3.57 17.66 C3.13 17.29, 2.71 16.87, 2.34 16.43 C1.97 15.98, 1.63 15.5, 1.34 15 C1.05 14.5, 0.8 13.96, 0.6 13.42 C0.41 12.88, 0.25 12.31, 0.15 11.74 C0.05 11.17, 0 10.58, 0 10 C0 9.42, 0.05 8.83, 0.15 8.26 C0.25 7.69, 0.41 7.12, 0.6 6.58 C0.8 6.04, 1.05 5.5, 1.34 5 C1.63 4.5, 1.97 4.02, 2.34 3.57 C2.71 3.13, 3.13 2.71, 3.57 2.34 C4.02 1.97, 4.5 1.63, 5 1.34 C5.5 1.05, 6.04 0.8, 6.58 0.6 C7.12 0.41, 7.69 0.25, 8.26 0.15 C8.83 0.05, 9.42 0, 10 0 C10.58 0, 11.17 0.05, 11.74 0.15 C12.31 0.25, 12.88 0.41, 13.42 0.6 C13.96 0.8, 14.5 1.05, 15 1.34 C15.5 1.63, 15.98 1.97, 16.43 2.34 C16.87 2.71, 17.29 3.13, 17.66 3.57 C18.03 4.02, 18.37 4.5, 18.66 5 C18.95 5.5, 19.2 6.04, 19.4 6.58 C19.59 7.12, 19.75 7.69, 19.85 8.26 C19.95 8.83, 19.97 9.71, 20 10 C20.03 10.29, 20.03 9.71, 20 10" stroke="none" stroke-width="0" fill="#34a853"></path><path d="M20 10 C20 10.58, 19.95 11.17, 19.85 11.74 C19.75 12.31, 19.59 12.88, 19.4 13.42 C19.2 13.96, 18.95 14.5, 18.66 15 C18.37 15.5, 18.03 15.98, 17.66 16.43 C17.29 16.87, 16.87 17.29, 16.43 17.66 C15.98 18.03, 15.5 18.37, 15 18.66 C14.5 18.95, 13.96 19.2, 13.42 19.4 C12.88 19.59, 12.31 19.75, 11.74 19.85 C11.17 19.95, 10.58 20, 10 20 C9.42 20, 8.83 19.95, 8.26 19.85 C7.69 19.75, 7.12 19.59, 6.58 19.4 C6.04 19.2, 5.5 18.95, 5 18.66 C4.5 18.37, 4.02 18.03, 3.57 17.66 C3.13 17.29, 2.71 16.87, 2.34 16.43 C1.97 15.98, 1.63 15.5, 1.34 15 C1.05 14.5, 0.8 13.96, 0.6 13.42 C0.41 12.88, 0.25 12.31, 0.15 11.74 C0.05 11.17, 0 10.58, 0 10 C0 9.42, 0.05 8.83, 0.15 8.26 C0.25 7.69, 0.41 7.12, 0.6 6.58 C0.8 6.04, 1.05 5.5, 1.34 5 C1.63 4.5, 1.97 4.02, 2.34 3.57 C2.71 3.13, 3.13 2.71, 3.57 2.34 C4.02 1.97, 4.5 1.63, 5 1.34 C5.5 1.05, 6.04 0.8, 6.58 0.6 C7.12 0.41, 7.69 0.25, 8.26 0.15 C8.83 0.05, 9.42 0, 10 0 C10.58 0, 11.17 0.05, 11.74 0.15 C12.31 0.25, 12.88 0.41, 13.42 0.6 C13.96 0.8, 14.5 1.05, 15 1.34 C15.5 1.63, 15.98 1.97, 16.43 2.34 C16.87 2.71, 17.29 3.13, 17.66 3.57 C18.03 4.02, 18.37 4.5, 18.66 5 C18.95 5.5, 19.2 6.04, 19.4 6.58 C19.59 7.12, 19.75 7.69, 19.85 8.26 C19.95 8.83, 19.97 9.71, 20 10 C20.03 10.29, 20.03 9.71, 20 10" stroke="#34a853" stroke-width="2" fill="none"></path></g><g transform="translate(235.5 271) rotate(0 4.5 9)"><text x="4.5" y="14" font-family="Helvetica, Segoe UI Emoji" font-size="16px" fill="white" text-anchor="middle" style="white-space: pre;" direction="ltr">1</text></g><g stroke-linecap="round" transform="translate(410 330) rotate(0 10 10)"><path d="M20 10 C20 10.58, 19.95 11.17, 19.85 11.74 C19.75 12.31, 19.59 12.88, 19.4 13.42 C19.2 13.96, 18.95 14.5, 18.66 15 C18.37 15.5, 18.03 15.98, 17.66 16.43 C17.29 16.87, 16.87 17.29, 16.43 17.66 C15.98 18.03, 15.5 18.37, 15 18.66 C14.5 18.95, 13.96 19.2, 13.42 19.4 C12.88 19.59, 12.31 19.75, 11.74 19.85 C11.17 19.95, 10.58 20, 10 20 C9.42 20, 8.83 19.95, 8.26 19.85 C7.69 19.75, 7.12 19.59, 6.58 19.4 C6.04 19.2, 5.5 18.95, 5 18.66 C4.5 18.37, 4.02 18.03, 3.57 17.66 C3.13 17.29, 2.71 16.87, 2.34 16.43 C1.97 15.98, 1.63 15.5, 1.34 15 C1.05 14.5, 0.8 13.96, 0.6 13.42 C0.41 12.88, 0.25 12.31, 0.15 11.74 C0.05 11.17, 0 10.58, 0 10 C0 9.42, 0.05 8.83, 0.15 8.26 C0.25 7.69, 0.41 7.12, 0.6 6.58 C0.8 6.04, 1.05 5.5, 1.34 5 C1.63 4.5, 1.97 4.02, 2.34 3.57 C2.71 3.13, 3.13 2.71, 3.57 2.34 C4.02 1.97, 4.5 1.63, 5 1.34 C5.5 1.05, 6.04 0.8, 6.58 0.6 C7.12 0.41, 7.69 0.25, 8.26 0.15 C8.83 0.05, 9.42 0, 10 0 C10.58 0, 11.17 0.05, 11.74 0.15 C12.31 0.25, 12.88 0.41, 13.42 0.6 C13.96 0.8, 14.5 1.05, 15 1.34 C15.5 1.63, 15.98 1.97, 16.43 2.34 C16.87 2.71, 17.29 3.13, 17.66 3.57 C18.03 4.02, 18.37 4.5, 18.66 5 C18.95 5.5, 19.2 6.04, 19.4 6.58 C19.59 7.12, 19.75 7.69, 19.85 8.26 C19.95 8.83, 19.97 9.71, 20 10 C20.03 10.29, 20.03 9.71, 20 10" stroke="none" stroke-width="0" fill="#34a853"></path><path d="M20 10 C20 10.58, 19.95 11.17, 19.85 11.74 C19.75 12.31, 19.59 12.88, 19.4 13.42 C19.2 13.96, 18.95 14.5, 18.66 15 C18.37 15.5, 18.03 15.98, 17.66 16.43 C17.29 16.87, 16.87 17.29, 16.43 17.66 C15.98 18.03, 15.5 18.37, 15 18.66 C14.5 18.95, 13.96 19.2, 13.42 19.4 C12.88 19.59, 12.31 19.75, 11.74 19.85 C11.17 19.95, 10.58 20, 10 20 C9.42 20, 8.83 19.95, 8.26 19.85 C7.69 19.75, 7.12 19.59, 6.58 19.4 C6.04 19.2, 5.5 18.95, 5 18.66 C4.5 18.37, 4.02 18.03, 3.57 17.66 C3.13 17.29, 2.71 16.87, 2.34 16.43 C1.97 15.98, 1.63 15.5, 1.34 15 C1.05 14.5, 0.8 13.96, 0.6 13.42 C0.41 12.88, 0.25 12.31, 0.15 11.74 C0.05 11.17, 0 10.58, 0 10 C0 9.42, 0.05 8.83, 0.15 8.26 C0.25 7.69, 0.41 7.12, 0.6 6.58 C0.8 6.04, 1.05 5.5, 1.34 5 C1.63 4.5, 1.97 4.02, 2.34 3.57 C2.71 3.13, 3.13 2.71, 3.57 2.34 C4.02 1.97, 4.5 1.63, 5 1.34 C5.5 1.05, 6.04 0.8, 6.58 0.6 C7.12 0.41, 7.69 0.25, 8.26 0.15 C8.83 0.05, 9.42 0, 10 0 C10.58 0, 11.17 0.05, 11.74 0.15 C12.31 0.25, 12.88 0.41, 13.42 0.6 C13.96 0.8, 14.5 1.05, 15 1.34 C15.5 1.63, 15.98 1.97, 16.43 2.34 C16.87 2.71, 17.29 3.13, 17.66 3.57 C18.03 4.02, 18.37 4.5, 18.66 5 C18.95 5.5, 19.2 6.04, 19.4 6.58 C19.59 7.12, 19.75 7.69, 19.85 8.26 C19.95 8.83, 19.97 9.71, 20 10 C20.03 10.29, 20.03 9.71, 20 10" stroke="#34a853" stroke-width="2" fill="none"></path></g><g transform="translate(410 330) rotate(0 7 9.5)"><text x="0" y="15" font-family="Helvetica, Segoe UI Emoji" font-size="16px" fill="white" text-anchor="start" style="white-space: pre;" direction="ltr"> 2</text></g><g stroke-opacity="0.8" fill-opacity="0.8" transform="translate(690 130) rotate(0 95.5 11.5)"><text x="0" y="19" font-family="Helvetica, Segoe UI Emoji" font-size="20px" fill="#202124" text-anchor="start" style="white-space: pre;" direction="ltr">Google Cloud Project</text></g><g stroke-linecap="round" transform="translate(104.73684210526426 323.1578947368416) rotate(0 122.63157894736787 46.18421052631578)"><path d="M23.09 0 L222.17 0 L232.27 1.44 L236.24 3.25 L239.49 5.77 L242.02 9.02 L244.9 17.68 L245.26 69.28 L243.82 79.38 L242.02 83.35 L239.49 86.6 L236.24 89.12 L232.27 90.93 L222.17 92.37 L23.09 92.37 L12.99 90.93 L5.77 86.6 L3.25 83.35 L0.36 74.69 L0.36 17.68 L1.44 12.99 L5.77 5.77 L12.99 1.44 L23.09 0" stroke="none" stroke-width="0" fill="#FFF"></path><path d="M23.09 0 M23.09 0 C66.32 0, 109.55 0, 222.17 0 M23.09 0 C89.46 0, 155.84 0, 222.17 0 M222.17 0 C237.57 0, 245.26 7.7, 245.26 23.09 M222.17 0 C237.57 0, 245.26 7.7, 245.26 23.09 M245.26 23.09 C245.26 37.74, 245.26 52.39, 245.26 69.28 M245.26 23.09 C245.26 35.39, 245.26 47.7, 245.26 69.28 M245.26 69.28 C245.26 84.67, 237.57 92.37, 222.17 92.37 M245.26 69.28 C245.26 84.67, 237.57 92.37, 222.17 92.37 M222.17 92.37 C147.17 92.37, 72.17 92.37, 23.09 92.37 M222.17 92.37 C154.65 92.37, 87.13 92.37, 23.09 92.37 M23.09 92.37 C7.7 92.37, 0 84.67, 0 69.28 M23.09 92.37 C7.7 92.37, 0 84.67, 0 69.28 M0 69.28 C0 57.25, 0 45.23, 0 23.09 M0 69.28 C0 52.42, 0 35.56, 0 23.09 M0 23.09 C0 7.7, 7.7 0, 23.09 0 M0 23.09 C0 7.7, 7.7 0, 23.09 0" stroke="#4285f4" stroke-width="2" fill="none"></path></g><g transform="translate(175.78947368421086 359.842105263158) rotate(0 79 9.5)"><text x="0" y="15" font-family="Helvetica, Segoe UI Emoji" font-size="16px" fill="#000000" text-anchor="start" style="white-space: pre;" direction="ltr">Cloud Load Balancing</text></g><g stroke-linecap="round"><g transform="translate(144.74342270901252 367.3199760286431) rotate(0 -1.7709338665008545 -3.541866038974973)" fill-rule="evenodd"><path d="M0 0 L-3.54 0 L-3.54 -7.08 L0 -7.08 L0 0" stroke="none" stroke-width="0" fill="#4285f4" fill-rule="evenodd"></path><path d="M0 0 C-0.79 0, -1.59 0, -3.54 0 M0 0 C-0.91 0, -1.83 0, -3.54 0 M-3.54 0 C-3.54 -1.54, -3.54 -3.08, -3.54 -7.08 M-3.54 0 C-3.54 -1.46, -3.54 -2.91, -3.54 -7.08 M-3.54 -7.08 C-2.77 -7.08, -2 -7.08, 0 -7.08 M-3.54 -7.08 C-2.23 -7.08, -0.91 -7.08, 0 -7.08 M0 -7.08 C0 -4.84, 0 -2.59, 0 0 M0 -7.08 C0 -5.29, 0 -3.49, 0 0 M0 0 C0 0, 0 0, 0 0 M0 0 C0 0, 0 0, 0 0" stroke="#00000000" stroke-width="1" fill="none"></path></g></g><g stroke-linecap="round"><g transform="translate(128.805024121938 367.31997602864317) rotate(0 14.167463591224305 4.427332689887606)" fill-rule="evenodd"><path d="M0 0 L0 8.85 L3.54 8.85 L3.54 3.54 L12.4 3.54 L12.4 8.85 L15.94 8.85 L15.94 3.54 L24.79 3.54 L24.79 8.85 L28.33 8.85 L28.33 0 L0 0" stroke="none" stroke-width="0" fill="#669df6" fill-rule="evenodd"></path><path d="M0 0 C0 2.56, 0 5.11, 0 8.85 M0 0 C0 2.06, 0 4.11, 0 8.85 M0 8.85 C0.91 8.85, 1.82 8.85, 3.54 8.85 M0 8.85 C1.03 8.85, 2.06 8.85, 3.54 8.85 M3.54 8.85 C3.54 7.09, 3.54 5.33, 3.54 3.54 M3.54 8.85 C3.54 7.26, 3.54 5.66, 3.54 3.54 M3.54 3.54 C6.71 3.54, 9.87 3.54, 12.4 3.54 M3.54 3.54 C5.63 3.54, 7.72 3.54, 12.4 3.54 M12.4 3.54 C12.4 4.93, 12.4 6.31, 12.4 8.85 M12.4 3.54 C12.4 4.95, 12.4 6.35, 12.4 8.85 M12.4 8.85 C13.34 8.85, 14.28 8.85, 15.94 8.85 M12.4 8.85 C13.79 8.85, 15.17 8.85, 15.94 8.85 M15.94 8.85 C15.94 7.77, 15.94 6.69, 15.94 3.54 M15.94 8.85 C15.94 7.78, 15.94 6.71, 15.94 3.54 M15.94 3.54 C18.75 3.54, 21.57 3.54, 24.79 3.54 M15.94 3.54 C18.54 3.54, 21.14 3.54, 24.79 3.54 M24.79 3.54 C24.79 5.55, 24.79 7.55, 24.79 8.85 M24.79 3.54 C24.79 4.76, 24.79 5.97, 24.79 8.85 M24.79 8.85 C25.8 8.85, 26.8 8.85, 28.33 8.85 M24.79 8.85 C26.08 8.85, 27.38 8.85, 28.33 8.85 M28.33 8.85 C28.33 5.48, 28.33 2.11, 28.33 0 M28.33 8.85 C28.33 7.08, 28.33 5.3, 28.33 0 M28.33 0 C20.75 0, 13.16 0, 0 0 M28.33 0 C22.19 0, 16.04 0, 0 0 M0 0 C0 0, 0 0, 0 0 M0 0 C0 0, 0 0, 0 0" stroke="#00000000" stroke-width="1" fill="none"></path></g></g><g stroke-linecap="round"><g transform="translate(132.34689072558785 351.3815791355938) rotate(0 10.625598116924834 4.427332407549812)" fill-rule="evenodd"><path d="M0 0 L21.25 0 L21.25 8.85 L0 8.85 L0 0" stroke="none" stroke-width="0" fill="#aecbfa" fill-rule="evenodd"></path><path d="M0 0 C6.25 0, 12.49 0, 21.25 0 M0 0 C4.7 0, 9.41 0, 21.25 0 M21.25 0 C21.25 2.46, 21.25 4.92, 21.25 8.85 M21.25 0 C21.25 1.9, 21.25 3.8, 21.25 8.85 M21.25 8.85 C14.62 8.85, 7.98 8.85, 0 8.85 M21.25 8.85 C16.22 8.85, 11.18 8.85, 0 8.85 M0 8.85 C0 5.99, 0 3.12, 0 0 M0 8.85 C0 5.93, 0 3, 0 0 M0 0 C0 0, 0 0, 0 0 M0 0 C0 0, 0 0, 0 0" stroke="#00000000" stroke-width="1" fill="none"></path></g></g><g stroke-linecap="round"><g transform="translate(142.9724894071869 351.3815791355938) rotate(0 5.312798776124623 4.427332407549812)" fill-rule="evenodd"><path d="M0 0 L10.63 0 L10.63 8.85 L0 8.85 L0 0" stroke="none" stroke-width="0" fill="#669df6" fill-rule="evenodd"></path><path d="M0 0 C2.5 0, 4.99 0, 10.63 0 M0 0 C2.15 0, 4.29 0, 10.63 0 M10.63 0 C10.63 1.92, 10.63 3.83, 10.63 8.85 M10.63 0 C10.63 2.38, 10.63 4.77, 10.63 8.85 M10.63 8.85 C8.36 8.85, 6.1 8.85, 0 8.85 M10.63 8.85 C8.04 8.85, 5.45 8.85, 0 8.85 M0 8.85 C0 5.42, 0 1.98, 0 0 M0 8.85 C0 6.88, 0 4.91, 0 0 M0 0 C0 0, 0 0, 0 0 M0 0 C0 0, 0 0, 0 0" stroke="#00000000" stroke-width="1" fill="none"></path></g></g><g stroke-linecap="round"><g transform="translate(150.05622035578745 376.17464140841844) rotate(0 5.312798776124623 5.312798776124652)" fill-rule="evenodd"><path d="M0 0 L10.63 0 L10.63 10.63 L0 10.63 L0 0" stroke="none" stroke-width="0" fill="#aecbfa" fill-rule="evenodd"></path><path d="M0 0 C2.27 0, 4.54 0, 10.63 0 M0 0 C2.13 0, 4.27 0, 10.63 0 M10.63 0 C10.63 2.73, 10.63 5.47, 10.63 10.63 M10.63 0 C10.63 4.03, 10.63 8.07, 10.63 10.63 M10.63 10.63 C7.38 10.63, 4.13 10.63, 0 10.63 M10.63 10.63 C8.3 10.63, 5.97 10.63, 0 10.63 M0 10.63 C0 7.62, 0 4.61, 0 0 M0 10.63 C0 7.56, 0 4.49, 0 0 M0 0 C0 0, 0 0, 0 0 M0 0 C0 0, 0 0, 0 0" stroke="#00000000" stroke-width="1" fill="none"></path></g></g><g stroke-linecap="round"><g transform="translate(125.26315808296204 376.17464140841844) rotate(0 5.312799058462474 5.312798776124652)" fill-rule="evenodd"><path d="M0 0 L10.63 0 L10.63 10.63 L0 10.63 L0 0" stroke="none" stroke-width="0" fill="#aecbfa" fill-rule="evenodd"></path><path d="M0 0 C3.76 0, 7.52 0, 10.63 0 M0 0 C3.4 0, 6.8 0, 10.63 0 M10.63 0 C10.63 3.88, 10.63 7.75, 10.63 10.63 M10.63 0 C10.63 2.35, 10.63 4.7, 10.63 10.63 M10.63 10.63 C7.95 10.63, 5.28 10.63, 0 10.63 M10.63 10.63 C6.65 10.63, 2.67 10.63, 0 10.63 M0 10.63 C0 6.53, 0 2.44, 0 0 M0 10.63 C0 6.7, 0 2.77, 0 0 M0 0 C0 0, 0 0, 0 0 M0 0 C0 0, 0 0, 0 0" stroke="#00000000" stroke-width="1" fill="none"></path></g></g><g stroke-linecap="round"><g transform="translate(130.57595742376225 376.17464140841844) rotate(0 2.6563993880623684 5.312798776124652)" fill-rule="evenodd"><path d="M0 0 L5.31 0 L5.31 10.63 L0 10.63 L0 0" stroke="none" stroke-width="0" fill="#669df6" fill-rule="evenodd"></path><path d="M0 0 C1.86 0, 3.73 0, 5.31 0 M0 0 C2.07 0, 4.14 0, 5.31 0 M5.31 0 C5.31 3.08, 5.31 6.17, 5.31 10.63 M5.31 0 C5.31 3.37, 5.31 6.73, 5.31 10.63 M5.31 10.63 C3.22 10.63, 1.12 10.63, 0 10.63 M5.31 10.63 C3.67 10.63, 2.02 10.63, 0 10.63 M0 10.63 C0 7.95, 0 5.28, 0 0 M0 10.63 C0 6.9, 0 3.18, 0 0 M0 0 C0 0, 0 0, 0 0 M0 0 C0 0, 0 0, 0 0" stroke="#00000000" stroke-width="1" fill="none"></path></g></g><g stroke-linecap="round"><g transform="translate(137.65968950171282 376.17464140841844) rotate(0 5.312799905475799 5.312798776124652)" fill-rule="evenodd"><path d="M0 0 L10.63 0 L10.63 10.63 L0 10.63 L0 0" stroke="none" stroke-width="0" fill="#aecbfa" fill-rule="evenodd"></path><path d="M0 0 C2.4 0, 4.81 0, 10.63 0 M0 0 C3.12 0, 6.24 0, 10.63 0 M10.63 0 C10.63 3.27, 10.63 6.53, 10.63 10.63 M10.63 0 C10.63 2.79, 10.63 5.59, 10.63 10.63 M10.63 10.63 C7.08 10.63, 3.54 10.63, 0 10.63 M10.63 10.63 C7.26 10.63, 3.89 10.63, 0 10.63 M0 10.63 C0 7.8, 0 4.96, 0 0 M0 10.63 C0 8.47, 0 6.31, 0 0 M0 0 C0 0, 0 0, 0 0 M0 0 C0 0, 0 0, 0 0" stroke="#00000000" stroke-width="1" fill="none"></path></g></g><g stroke-linecap="round"><g transform="translate(142.9724894071869 376.17464140841844) rotate(0 2.6563999527379565 5.312798776124652)" fill-rule="evenodd"><path d="M0 0 L5.31 0 L5.31 10.63 L0 10.63 L0 0" stroke="none" stroke-width="0" fill="#669df6" fill-rule="evenodd"></path><path d="M0 0 C1.51 0, 3.02 0, 5.31 0 M0 0 C1.79 0, 3.57 0, 5.31 0 M5.31 0 C5.31 2.24, 5.31 4.48, 5.31 10.63 M5.31 0 C5.31 2.75, 5.31 5.49, 5.31 10.63 M5.31 10.63 C3.9 10.63, 2.48 10.63, 0 10.63 M5.31 10.63 C3.84 10.63, 2.37 10.63, 0 10.63 M0 10.63 C0 7.79, 0 4.95, 0 0 M0 10.63 C0 6.68, 0 2.74, 0 0 M0 0 C0 0, 0 0, 0 0 M0 0 C0 0, 0 0, 0 0" stroke="#00000000" stroke-width="1" fill="none"></path></g></g><g stroke-linecap="round"><g transform="translate(155.36902251996526 376.17464140841844) rotate(0 2.656397694035604 5.312798776124652)" fill-rule="evenodd"><path d="M0 0 L5.31 0 L5.31 10.63 L0 10.63 L0 0" stroke="none" stroke-width="0" fill="#669df6" fill-rule="evenodd"></path><path d="M0 0 C2.11 0, 4.22 0, 5.31 0 M0 0 C1.98 0, 3.95 0, 5.31 0 M5.31 0 C5.31 3.99, 5.31 7.98, 5.31 10.63 M5.31 0 C5.31 3.65, 5.31 7.31, 5.31 10.63 M5.31 10.63 C3.57 10.63, 1.82 10.63, 0 10.63 M5.31 10.63 C3.63 10.63, 1.94 10.63, 0 10.63 M0 10.63 C0 7.5, 0 4.37, 0 0 M0 10.63 C0 6.76, 0 2.9, 0 0 M0 0 C0 0, 0 0, 0 0 M0 0 C0 0, 0 0, 0 0" stroke="#00000000" stroke-width="1" fill="none"></path></g></g></svg>
